<?xml version="1.0" encoding="utf-8"?>
<svg version="1.1" id="Layer_1" xmlns="http://www.w3.org/2000/svg" xmlns:xlink="http://www.w3.org/1999/xlink" x="0" y="0" width="20" height="20"
	 viewBox="-23.8 295.1 16.6 12.2" style="enable-background:new -23.8 295.1 16.6 12.2;" xml:space="preserve">
<style type="text/css">
	.st0{fill:none;stroke:#fff;stroke-width:2;}
	.st1{fill:#fff;}
</style>
<title>8</title>
<g id="skipback">
	<path class="st0" d="M-195.5,309c4.5,0,8.2-3.6,8.2-8.1c0,0,0,0,0,0l0,0"/>
	<path class="st0" d="M-187.4,301.2c0-4.5-3.6-8.2-8.1-8.2c0,0,0,0,0,0l0,0"/>
	<path class="st1" d="M-199.3,293.3l4.3,2.2v-4.3L-199.3,293.3z"/>
	<path class="st1" d="M-202,293.3l4.3,2.2v-4.3L-202,293.3z"/>
</g>
<path class="st1" d="M-10.2,295.1h-10.6c-1.6,0-3,2.7-3,6.1s1.3,6.1,3,6.1h10.6c1.6,0,3-2.7,3-6.1S-8.5,295.1-10.2,295.1z
	 M-17.2,303.8h-1.2v-0.7h-2l-0.4,0.7h-1.7l3.8-5.3h1.5L-17.2,303.8L-17.2,303.8L-17.2,303.8z M-15,303.8h-1.6v-5.3h1.6
	c1.5,0,2.7,1.2,2.7,2.6C-12.3,302.6-13.5,303.8-15,303.8C-15,303.8-15,303.8-15,303.8z M-11.8,303.8h-0.5c0.6-0.7,0.9-1.6,0.9-2.5
	c0-1.1-0.4-2.1-1.2-2.8h0.7c0.7,0.8,1,1.8,1,2.8C-10.9,302.2-11.2,303.1-11.8,303.8L-11.8,303.8z M-10.3,303.8H-11
	c0.6-0.7,0.9-1.6,0.9-2.5c0-1.1-0.4-2.1-1.2-2.8h0.7c0.7,0.8,1,1.8,1,2.8C-9.5,302.2-9.8,303.1-10.3,303.8z M-9,303.8h-0.7
	c0.6-0.7,0.9-1.6,0.9-2.5c0-1.1-0.4-2.1-1.2-2.8h0.7c0.7,0.8,1,1.8,1,2.8C-8.2,302.2-8.5,303.1-9,303.8z"/>
<path class="st1" d="M-15.1,299.8h-0.4v2.8h0.4c0.8,0,1.4-0.6,1.4-1.3c0,0,0,0,0-0.1C-13.7,300.4-14.3,299.8-15.1,299.8z"/>
<polygon class="st1" points="-18.3,302 -18.3,300.1 -19.6,302 "/>
</svg>
