<?xml version="1.0" encoding="utf-8"?>
<svg xmlns="http://www.w3.org/2000/svg" viewBox="0 0 16 16"><path d="m11.666 1043.52v-1.49c0-2.02-1.645-3.667-3.666-3.667-2.02 0-3.666 1.645-3.666 3.667v1.49c-.289.06-.507.317-.507.624v5.582c0 .352.286.638.638.638h7.07c.352 0 .638-.286.638-.638v-5.582c0-.307-.218-.563-.507-.624m-2.81 4.758c.013.069-.034.125-.104.125h-1.488c-.07 0-.117-.057-.104-.125l.237-1.256c-.179-.164-.292-.399-.292-.661 0-.494.401-.895.895-.895.494 0 .895.4.895.895 0 .255-.107.485-.278.648zm1.534-4.772h-4.782v-1.476c0-1.319 1.073-2.391 2.391-2.391 1.318 0 2.391 1.073 2.391 2.391z" fill="#fff" transform="translate(0-1036.36)"/></svg>
