<?xml version="1.0" encoding="utf-8"?>
<svg viewBox="0 0 16 16" xmlns="http://www.w3.org/2000/svg">
  <ellipse cx="8" cy="8" rx="8" ry="8"/>
  <path d="M 11.666 4.667 C 11.666 2.647 10.021 1 8 1 C 5.98 1 4.334 2.645 4.334 4.667 L 4.334 5.404 L 5.608 5.404 L 5.608 4.667 C 5.608 3.348 6.681 2.276 7.999 2.276 C 9.317 2.276 10.39 3.349 10.39 4.667 L 10.39 7.169 L 5.608 7.169 L 5.608 7.162 L 4.334 7.162 L 4.334 7.183 C 4.045 7.243 3.827 7.5 3.827 7.807 L 3.827 13.389 C 3.827 13.741 4.113 14.027 4.465 14.027 L 11.535 14.027 C 11.887 14.027 12.173 13.741 12.173 13.389 L 12.173 7.807 C 12.173 7.5 11.955 7.244 11.666 7.183 Z M 8.856 11.941 C 8.869 12.01 8.822 12.066 8.752 12.066 L 7.264 12.066 C 7.194 12.066 7.147 12.009 7.16 11.941 L 7.397 10.685 C 7.218 10.521 7.105 10.286 7.105 10.024 C 7.105 9.53 7.506 9.129 8 9.129 C 8.494 9.129 8.895 9.529 8.895 10.024 C 8.895 10.279 8.788 10.509 8.617 10.672 Z" style="fill: rgb(255, 255, 255);"/>
  <path d="M 8.073 9.593" style="fill: none;"/>
  <path d="M 6.169 11.315" style="fill: none;"/>
  <path d="M -4.527 11.791 Z" style="fill: none;"/>
  <path d="M -1.523 1.682 Z" style="stroke: black; fill: none;"/>
</svg>