<?xml version="1.0" encoding="UTF-8"?>
<svg xmlns="http://www.w3.org/2000/svg" viewBox="0 0 19 19">
    <symbol id="icon-jump-forward" viewBox="0 0 19 19" xmlns="http://www.w3.org/2000/svg">
        <path d="M12.4 2.1 8.1 4.3V0z" fill="currentColor"/>
        <path d="m15.1 2.1-4.3 2.2V0z" fill="currentColor"/>
        <path d="M10.2 2.1q-1.6 0-3.1.6T4.4 4.5Q3.3 5.6 2.6 7.1 2 8.6 2 10.2" fill="none" stroke="currentColor" stroke-width="2"/>
        <path d="M2.1 9.8q0 1.6.6 3.1t1.8 2.7q1.1 1.1 2.6 1.8 1.5.6 3.1.6" fill="none" stroke="currentColor" stroke-width="2"/>
        <path d="M9.8 18q1.6 0 3.1-.6t2.7-1.8q1.1-1.1 1.8-2.6.6-1.5.6-3.1" fill="none" stroke="currentColor" stroke-width="2"/>
        <text x="10.2" y="12.5" font-size="8px" fill="currentColor" font-family="sans-serif" text-anchor="middle">30</text>
    </symbol>
</svg>
