<?xml version="1.0" encoding="UTF-8"?>
<svg xmlns="http://www.w3.org/2000/svg" viewBox="0 0 512 512">
    <symbol id="icon-audio" viewBox="0 0 512 512" xmlns="http://www.w3.org/2000/svg">
        <path fill="currentColor" d="M162.925 238.709l8.822 30.655h-25.606l9.041-30.652c1.277-4.421 2.651-9.994 3.872-15.245 1.22 5.251 2.594 10.823 3.871 15.242zm166.474-32.099h-14.523v98.781h14.523c29.776 0 46.175-17.678 46.175-49.776 0-32.239-17.49-49.005-46.175-49.005zM512 112v288c0 26.51-21.49 48-48 48H48c-26.51 0-48-21.49-48-48V112c0-26.51 21.49-48 48-48h416c26.51 0 48 21.49 48 48zM245.459 336.139l-57.097-168A12.001 12.001 0 0 0 177 160h-35.894a12.001 12.001 0 0 0-11.362 8.139l-57.097 168C70.003 343.922 75.789 352 84.009 352h29.133a12 12 0 0 0 11.535-8.693l8.574-29.906h51.367l8.793 29.977A12 12 0 0 0 204.926 352h29.172c8.22 0 14.006-8.078 11.361-15.861zm184.701-80.525c0-58.977-37.919-95.614-98.96-95.614h-57.366c-6.627 0-12 5.373-12 12v168c0 6.627 5.373 12 12 12H331.2c61.041 0 98.96-36.933 98.96-96.386z"/>
    </symbol>
    <symbol id="icon-video" viewBox="0 0 17 18" xmlns="http://www.w3.org/2000/svg">
        <path fill="currentColor" d="M13.0386,6.78375 C13.90485,5.84925 14.7711,4.91475 15.6366,3.9795 C15.9696,3.62025 16.30635,3.264 16.63335,2.90025 C16.87935,2.6265 16.8576,2.1975 16.59885,1.956 C16.34385,1.7175 16.00485,1.749 15.7281,2.04675 C14.88435,2.9535 14.0436,3.864 13.20135,4.77225 C12.84435,5.15775 12.48885,5.544 12.12885,5.92575 C12.00435,6.0585 11.8506,6.069 11.73735,5.96925 C11.61735,5.86275 11.59635,5.6895 11.68935,5.55225 C11.71185,5.5185 11.7411,5.48775 11.76885,5.45775 C12.12585,5.07225 12.48285,4.6875 12.8391,4.302 C13.6851,3.3885 14.53185,2.4765 15.37485,1.56 C15.6366,1.275 15.6171,0.852 15.34485,0.60525 C15.0786,0.36375 14.7591,0.39375 14.47485,0.699 C13.5951,1.64475 12.7191,2.59425 11.84085,3.54225 C11.5161,3.89325 11.19135,4.2435 10.86435,4.5915 C10.76235,4.70025 10.6401,4.71975 10.5126,4.638 C10.39035,4.55925 10.34385,4.395 10.40985,4.26225 C10.4436,4.1955 10.4931,4.134 10.5441,4.0785 C11.2731,3.29025 12.0036,2.50275 12.73335,1.716 C12.9261,1.50825 13.1241,1.305 13.3101,1.09125 C13.5486,0.8175 13.5201,0.38175 13.25835,0.147 C13.01835,-0.0675 12.6621,-0.04575 12.4326,0.20175 C11.2461,1.48275 10.06035,2.76525 8.8746,4.047 C8.64435,4.29525 8.4126,4.542 8.15835,4.8135 C8.15835,4.74375 8.1546,4.71375 8.1591,4.686 C8.27085,4.02375 8.39085,3.36375 8.49285,2.70075 C8.5506,2.32875 8.65335,1.962 8.6556,1.58325 C8.6571,1.28325 8.42985,1.02 8.15535,0.984 C7.8501,0.9435 7.5876,1.11675 7.49235,1.41975 C7.38885,1.75125 7.28535,2.08275 7.18035,2.4135 C6.74985,3.76575 6.32085,5.118 5.8836,6.46725 C5.83485,6.618 5.8671,6.6435 6.0141,6.642 C6.84735,6.63675 7.67985,6.63975 8.51235,6.63975 C8.8371,6.63975 9.1611,6.63975 9.48585,6.63975 C10.08435,6.639 10.5891,7.14075 10.63785,7.78575 C10.6896,8.4735 10.24335,9.0585 9.60285,9.1545 C9.27285,9.20325 8.94435,9.26325 8.60985,9.31875 C8.62335,9.3465 8.6256,9.36225 8.63385,9.36675 C9.60285,9.87675 10.57335,10.38525 11.5416,10.89825 C11.63535,10.94775 11.6826,10.91925 11.7486,10.848 C12.94935,9.55575 14.1531,8.26575 15.35535,6.975 C15.78135,6.5175 16.20885,6.0615 16.6296,5.598 C16.8831,5.31825 16.8576,4.8885 16.5861,4.644 C16.3326,4.41525 15.98535,4.4625 15.7146,4.75725 C15.2271,5.28675 14.73735,5.81475 14.24835,6.34275 C13.9641,6.65025 13.67985,6.957 13.39335,7.263 C13.2606,7.4055 13.10835,7.425 12.9891,7.32075 C12.85335,7.20225 12.83985,7.02675 12.95685,6.87675 C12.98235,6.8445 13.01085,6.81375 13.0386,6.78375 M12.78435,14.853 C12.75435,15.111 12.5646,15.32625 12.31485,15.39225 C12.1626,15.43275 12.0231,15.3975 11.88885,15.327 C10.3926,14.54025 8.8956,13.75275 7.39935,12.966 C7.3731,12.95175 7.3476,12.93825 7.32135,12.92475 C7.1211,12.8265 6.97785,12.85575 6.8931,13.01325 C6.8076,13.1715 6.8721,13.36575 7.0506,13.461 C7.7121,13.8105 8.3751,14.157 9.03735,14.505 C9.90885,14.96325 10.7796,15.42 11.65035,15.879 C11.94135,16.032 12.0801,16.35225 11.99235,16.65525 C11.90385,16.95975 11.65935,17.1405 11.3646,17.12025 C11.26185,17.1135 11.1726,17.0715 11.0826,17.02425 C9.5811,16.233 8.07885,15.44325 6.57735,14.65425 C6.3636,14.54175 6.20085,14.57175 6.1176,14.7345 C6.02985,14.90625 6.10635,15.09075 6.31185,15.19875 C7.29285,15.71325 8.27385,16.22775 9.25485,16.7415 C9.5886,16.91625 9.72885,17.232 9.6201,17.568 C9.48885,17.973 9.1056,18.11325 8.70885,17.9025 C8.02185,17.538 7.33485,17.1735 6.6471,16.80975 C5.3241,16.11 3.99885,15.41475 2.6796,14.7075 C1.9656,14.325 1.4646,13.731 1.1511,12.99675 C0.48435,11.43525 0.6381,9.9465 1.69035,8.6025 C2.3856,7.7145 3.32835,7.26 4.4721,7.2585 C5.5116,7.25775 6.5511,7.24725 7.58985,7.251 C8.2221,7.25325 8.8536,7.26525 9.4851,7.25025 C9.76635,7.24425 10.0206,7.47975 10.0656,7.77375 C10.1196,8.1225 9.95535,8.43675 9.6426,8.5125 C9.3171,8.592 8.9826,8.63475 8.6511,8.691 C8.03535,8.796 7.41885,8.89875 6.8031,9.003 C6.7821,9.00675 6.76185,9.012 6.6951,9.027 C7.0926,9.23625 7.44885,9.4245 7.80585,9.61125 C9.2451,10.368 10.6851,11.12325 12.12435,11.88075 C12.39285,12.02175 12.53985,12.29475 12.50085,12.56325 C12.45885,12.8565 12.27735,13.06275 12.01035,13.125 C11.8626,13.1595 11.7306,13.11825 11.60235,13.0515 C10.50135,12.47325 9.4011,11.895 8.30085,11.31675 C8.2221,11.2755 8.14485,11.23275 8.0646,11.19525 C7.8891,11.112 7.75035,11.1495 7.6701,11.298 C7.5906,11.4465 7.6296,11.62725 7.78185,11.71425 C8.0481,11.86575 8.3211,12.00525 8.5926,12.14775 C9.8706,12.819 11.14935,13.48875 12.4266,14.16 C12.69135,14.29875 12.8196,14.553 12.78435,14.853" />
    </symbol>
</svg>
