<?xml version="1.0" encoding="UTF-8"?>
<svg version="1.1" xmlns="http://www.w3.org/2000/svg" xmlns:xlink="http://www.w3.org/1999/xlink">
<symbol id="default-icon" viewBox="0 0 18 18" xmlns="http://www.w3.org/2000/svg">
    <g id="Desktop">
        <g id="02.00.00_Artikelseite_desktop" transform="translate(-1296.000000, -16814.000000)">
            <g id="02_Content" transform="translate(0.000000, 109.000000)">
                <g id="Videoplayer" transform="translate(500.500000, 16181.000000)">
                    <g id="Modules-/-Content-/-Desktop-/-Videoplayer" transform="translate(0.500000, 0.000000)">
                        <g id="Controlbar" transform="translate(0.000000, 518.000000)">
                            <g id="Icons-/-UI-/-Option" transform="translate(795.000000, 6.000000)">
                                <path fill="currentColor" d="M9.68405,11.667575 C7.63695,12.160375 5.83845,10.362975 6.33235,8.315875 C6.56445,7.353375 7.35425,6.564675 8.31565,6.332575 C10.36275,5.838675 12.16125,7.637175 11.66735,9.684275 C11.43525,10.645675 10.64655,11.435475 9.68405,11.667575 M16.20375,7.517275 L15.98265,7.438075 C15.56355,7.289575 15.22695,6.969475 15.06085,6.556975 C15.04545,6.519575 15.02895,6.482175 15.01355,6.444775 C14.83975,6.034475 14.84965,5.570275 15.04215,5.167675 L15.14225,4.955375 C15.42825,4.354775 15.30395,3.637575 14.83425,3.166775 C14.36235,2.695975 13.64735,2.571675 13.04565,2.857675 L12.83335,2.958875 C12.43075,3.150275 11.96655,3.161275 11.55625,2.986375 C11.51885,2.970975 11.48145,2.955575 11.44295,2.940175 C11.03155,2.774075 10.71145,2.436375 10.56185,2.018375 L10.48375,1.796175 C10.26045,1.169175 9.66645,0.750075 9.00095,0.750075 C8.33325,0.750075 7.74035,1.169175 7.51705,1.796175 L7.43785,2.018375 C7.28935,2.436375 6.96925,2.774075 6.55675,2.940175 C6.51935,2.955575 6.48085,2.970975 6.44345,2.986375 C6.03425,3.161275 5.56895,3.149175 5.16635,2.958875 L4.95515,2.857675 C4.35345,2.571675 3.63735,2.694875 3.16655,3.165675 C2.69465,3.637575 2.57145,4.353675 2.85745,4.954275 L2.95865,5.166575 C3.15005,5.570275 3.16105,6.034475 2.98615,6.444775 C2.96965,6.483275 2.95425,6.519575 2.93995,6.558075 C2.77275,6.969475 2.43615,7.289575 2.01705,7.438075 L1.79705,7.517275 C1.16895,7.739475 0.74985,8.333475 0.74985,9.000075 C0.74985,9.666675 1.16895,10.260675 1.79705,10.482875 L2.01705,10.560975 C2.43615,10.710575 2.77275,11.029575 2.93995,11.442075 C2.95425,11.479475 2.96965,11.516875 2.98615,11.554275 C3.16105,11.965675 3.15005,12.429875 2.95865,12.833575 L2.85745,13.044775 C2.57145,13.646475 2.69465,14.361475 3.16655,14.833375 C3.63735,15.305275 4.35345,15.428475 4.95515,15.141375 L5.16745,15.041275 C5.57005,14.850975 6.03425,14.838875 6.44455,15.013775 C6.48195,15.029175 6.51935,15.044575 6.55675,15.059975 C6.96925,15.226075 7.28825,15.562675 7.43785,15.981775 L7.51705,16.203975 C7.74035,16.830975 8.33325,17.250075 8.99985,17.250075 C9.66645,17.250075 10.26045,16.830975 10.48375,16.203975 L10.56185,15.981775 C10.71145,15.563775 11.03045,15.226075 11.44295,15.059975 C11.48035,15.044575 11.51775,15.030275 11.55625,15.013775 C11.96655,14.838875 12.43075,14.850975 12.83335,15.041275 L13.04455,15.141375 C13.64625,15.428475 14.36235,15.305275 14.83425,14.833375 C15.30505,14.361475 15.42825,13.646475 15.14225,13.044775 L15.04215,12.833575 C14.84965,12.429875 14.83975,11.965675 15.01355,11.554275 C15.02895,11.516875 15.04545,11.479475 15.06085,11.442075 C15.22695,11.030675 15.56355,10.710575 15.98265,10.560975 L16.20375,10.482875 C16.83075,10.260675 17.24985,9.666675 17.24985,9.000075 C17.24985,8.333475 16.83075,7.739475 16.20375,7.517275 Z" id="Fill"></path>
                            </g>
                        </g>
                    </g>
                </g>
            </g>
        </g>
    </g>
</symbol>
</svg>
